<svg xmlns="http://www.w3.org/2000/svg">
    <symbol viewBox="0 0 100 67.333336" id="book">
        <path d="M16.6667 8.99996H91.6667V0.666626H16.6667C12.0833 0.666626 8.33333 4.41663 8.33333 8.99996V54.8333H0V67.3333H58.3333V54.8333H16.6667V8.99996ZM95.8333 17.3333H70.8333C68.5417 17.3333 66.6667 19.2083 66.6667 21.5V63.1666C66.6667 65.4583 68.5417 67.3333 70.8333 67.3333H95.8333C98.125 67.3333 100 65.4583 100 63.1666V21.5C100 19.2083 98.125 17.3333 95.8333 17.3333ZM91.6667 54.8333H75V25.6666H91.6667V54.8333Z" fill="#3077C6"/>
    </symbol>

    <symbol viewBox="0 0 83.666664 83.666664" id="comm">
        <path d="M54.5 8.66671V37.8334H13.5417L8.66666 42.7084V8.66671H54.5ZM58.6667 0.333374H4.5C2.20833 0.333374 0.333328 2.20837 0.333328 4.50004V62.8334L17 46.1667H58.6667C60.9583 46.1667 62.8333 44.2917 62.8333 42V4.50004C62.8333 2.20837 60.9583 0.333374 58.6667 0.333374ZM79.5 17H71.1667V54.5H17V62.8334C17 65.125 18.875 67 21.1667 67H67L83.6667 83.6667V21.1667C83.6667 18.875 81.7917 17 79.5 17Z" fill="#3077C6"/>
    </symbol>

    <symbol viewBox="0 0 205 40" id="logo" fill="#3077C6">
        <path d="M0.840915 11.0236C0.634374 10.6937 0.442587 10.2437 0.265552 9.67379C0.0885173 9.10386 0 8.50394 0 7.87402C0 6.70416 0.250799 5.86427 0.752398 5.35433C1.2835 4.84439 1.96213 4.58943 2.7883 4.58943H22.0851C22.2916 4.91938 22.4834 5.36933 22.6604 5.93926C22.8375 6.50919 22.926 7.10911 22.926 7.73903C22.926 8.90889 22.6604 9.74878 22.1293 10.2587C21.6277 10.7687 20.9639 11.0236 20.1377 11.0236H15.225V31.811C14.9004 31.901 14.3841 31.991 13.6759 32.081C12.9973 32.171 12.3187 32.216 11.64 32.216C10.9614 32.216 10.3565 32.156 9.82543 32.036C9.32383 31.946 8.896 31.766 8.54193 31.4961C8.18786 31.2261 7.9223 30.8511 7.74527 30.3712C7.56823 29.8913 7.47972 29.2613 7.47972 28.4814V11.0236H0.840915Z"/>
        <path d="M31.8497 31.946C31.5546 32.036 31.0825 32.126 30.4334 32.216C29.8138 32.306 29.1646 32.351 28.486 32.351C27.8369 32.351 27.2467 32.306 26.7156 32.216C26.214 32.126 25.7862 31.946 25.4321 31.676C25.0781 31.4061 24.7978 31.0461 24.5912 30.5962C24.4142 30.1162 24.3257 29.5013 24.3257 28.7514V15.2531C24.3257 14.5632 24.4437 13.9783 24.6797 13.4983C24.9453 12.9884 25.3141 12.5384 25.7862 12.1485C26.2583 11.7585 26.8337 11.4136 27.5123 11.1136C28.2204 10.7837 28.9728 10.4987 29.7695 10.2587C30.5662 10.0187 31.3923 9.83877 32.248 9.71878C33.1036 9.5688 33.9593 9.49381 34.815 9.49381C36.2313 9.49381 37.3525 9.77878 38.1786 10.3487C39.0048 10.8886 39.4179 11.7885 39.4179 13.0484C39.4179 13.4683 39.3589 13.8883 39.2409 14.3082C39.1228 14.6982 38.9753 15.0581 38.7983 15.3881C38.1786 15.3881 37.5443 15.4181 36.8951 15.4781C36.246 15.5381 35.6116 15.628 34.992 15.748C34.3724 15.868 33.7823 16.003 33.2217 16.153C32.6906 16.273 32.2332 16.4229 31.8497 16.6029V31.946Z" />
        <path d="M42.3448 4.04949C42.3448 2.90964 42.7137 1.94976 43.4513 1.16985C44.2185 0.389951 45.2216 0 46.4609 0C47.7001 0 48.6886 0.389951 49.4262 1.16985C50.1934 1.94976 50.577 2.90964 50.577 4.04949C50.577 5.18935 50.1934 6.14923 49.4262 6.92913C48.6886 7.70904 47.7001 8.09899 46.4609 8.09899C45.2216 8.09899 44.2185 7.70904 43.4513 6.92913C42.7137 6.14923 42.3448 5.18935 42.3448 4.04949ZM50.2229 31.946C49.8983 32.006 49.4115 32.081 48.7623 32.171C48.1427 32.291 47.5084 32.351 46.8592 32.351C46.2101 32.351 45.62 32.306 45.0889 32.216C44.5873 32.126 44.1594 31.946 43.8054 31.676C43.4513 31.4061 43.171 31.0461 42.9645 30.5962C42.7874 30.1162 42.6989 29.5013 42.6989 28.7514V10.4387C43.0235 10.3787 43.4956 10.3037 44.1152 10.2137C44.7643 10.0937 45.4134 10.0337 46.0626 10.0337C46.7117 10.0337 47.2871 10.0787 47.7887 10.1687C48.3198 10.2587 48.7623 10.4387 49.1164 10.7087C49.4705 10.9786 49.736 11.3536 49.9131 11.8335C50.1196 12.2835 50.2229 12.8834 50.2229 13.6333V31.946Z" />
        <path d="M64.8825 9.44882C66.6529 9.44882 68.2905 9.68879 69.7952 10.1687C71.3296 10.6187 72.6426 11.3236 73.7343 12.2835C74.826 13.2433 75.6816 14.4582 76.3013 15.928C76.9209 17.3678 77.2307 19.0926 77.2307 21.1024C77.2307 23.0221 76.9652 24.7019 76.4341 26.1417C75.9029 27.5816 75.1506 28.7964 74.1769 29.7863C73.2032 30.7462 72.0229 31.4661 70.6362 31.946C69.2789 32.4259 67.7593 32.6659 66.0775 32.6659C64.8088 32.6659 63.6285 32.4709 62.5368 32.081V39.5501C62.2418 39.64 61.7697 39.73 61.1205 39.82C60.4714 39.94 59.8075 40 59.1289 40C58.4798 40 57.8897 39.955 57.3586 39.865C56.857 39.775 56.4291 39.5951 56.0751 39.3251C55.721 39.0551 55.4554 38.6802 55.2784 38.2002C55.1014 37.7503 55.0128 37.1504 55.0128 36.4004V14.8031C55.0128 13.9933 55.1751 13.3333 55.4997 12.8234C55.8538 12.3135 56.3259 11.8485 56.916 11.4286C57.8307 10.8286 58.9666 10.3487 60.3239 9.98875C61.6812 9.6288 63.2007 9.44882 64.8825 9.44882ZM64.9711 26.6367C68.0101 26.6367 69.5297 24.7919 69.5297 21.1024C69.5297 19.1826 69.1461 17.7578 68.379 16.8279C67.6413 15.898 66.5644 15.4331 65.1481 15.4331C64.5875 15.4331 64.0859 15.5081 63.6433 15.658C63.2007 15.778 62.8171 15.928 62.4926 16.108V26.0067C62.8466 26.1867 63.2302 26.3367 63.6433 26.4567C64.0564 26.5767 64.499 26.6367 64.9711 26.6367Z"/>
        <path d="M105.466 31.811C105.141 31.901 104.625 31.991 103.917 32.081C103.238 32.171 102.56 32.216 101.881 32.216C101.202 32.216 100.598 32.156 100.066 32.036C99.5649 31.946 99.137 31.766 98.783 31.4961C98.4289 31.2261 98.1633 30.8511 97.9863 30.3712C97.8093 29.8913 97.7207 29.2613 97.7207 28.4814V21.4623H89.2231V31.811C88.8985 31.901 88.3822 31.991 87.674 32.081C86.9954 32.171 86.3168 32.216 85.6381 32.216C84.9595 32.216 84.3546 32.156 83.8235 32.036C83.3219 31.946 82.8941 31.766 82.54 31.4961C82.1859 31.2261 81.9204 30.8511 81.7434 30.3712C81.5663 29.8913 81.4778 29.2613 81.4778 28.4814V4.72441C81.8024 4.66442 82.3187 4.58943 83.0269 4.49944C83.735 4.37945 84.4136 4.31946 85.0628 4.31946C85.7414 4.31946 86.3315 4.37945 86.8331 4.49944C87.3642 4.58943 87.8068 4.7694 88.1609 5.03937C88.5149 5.30934 88.7805 5.68429 88.9575 6.16423C89.1346 6.64417 89.2231 7.27409 89.2231 8.05399V15.2531H97.7207V4.72441C98.0453 4.66442 98.5617 4.58943 99.2698 4.49944C99.9779 4.37945 100.657 4.31946 101.306 4.31946C101.984 4.31946 102.574 4.37945 103.076 4.49944C103.607 4.58943 104.05 4.7694 104.404 5.03937C104.758 5.30934 105.023 5.68429 105.2 6.16423C105.377 6.64417 105.466 7.27409 105.466 8.05399V31.811Z"/>
        <path d="M132.901 21.0574C132.901 22.9171 132.621 24.5819 132.06 26.0517C131.499 27.4916 130.703 28.7064 129.67 29.6963C128.667 30.6862 127.457 31.4361 126.041 31.946C124.624 32.4559 123.046 32.7109 121.305 32.7109C119.564 32.7109 117.986 32.4409 116.569 31.901C115.153 31.3611 113.929 30.5962 112.896 29.6063C111.893 28.5864 111.111 27.3566 110.55 25.9168C109.99 24.4769 109.709 22.8571 109.709 21.0574C109.709 19.2876 109.99 17.6828 110.55 16.243C111.111 14.8031 111.893 13.5883 112.896 12.5984C113.929 11.5786 115.153 10.7986 116.569 10.2587C117.986 9.71878 119.564 9.44882 121.305 9.44882C123.046 9.44882 124.624 9.73378 126.041 10.3037C127.457 10.8436 128.667 11.6235 129.67 12.6434C130.703 13.6333 131.499 14.8481 132.06 16.288C132.621 17.7278 132.901 19.3176 132.901 21.0574ZM117.41 21.0574C117.41 22.8871 117.75 24.297 118.428 25.2868C119.136 26.2467 120.11 26.7267 121.349 26.7267C122.589 26.7267 123.533 26.2317 124.182 25.2418C124.861 24.252 125.2 22.8571 125.2 21.0574C125.2 19.2576 124.861 17.8778 124.182 16.9179C123.503 15.928 122.544 15.4331 121.305 15.4331C120.066 15.4331 119.107 15.928 118.428 16.9179C117.75 17.8778 117.41 19.2576 117.41 21.0574Z" />
        <path d="M136.572 10.4387C136.867 10.3487 137.324 10.2587 137.944 10.1687C138.593 10.0787 139.257 10.0337 139.935 10.0337C140.584 10.0337 141.16 10.0787 141.661 10.1687C142.192 10.2587 142.635 10.4387 142.989 10.7087C143.343 10.9786 143.609 11.3536 143.786 11.8335C143.992 12.2835 144.096 12.8834 144.096 13.6333V23.3071C144.096 24.5369 144.391 25.4218 144.981 25.9618C145.571 26.4717 146.426 26.7267 147.548 26.7267C148.226 26.7267 148.772 26.6667 149.185 26.5467C149.628 26.4267 149.967 26.3067 150.203 26.1867V10.4387C150.498 10.3487 150.956 10.2587 151.575 10.1687C152.224 10.0787 152.888 10.0337 153.567 10.0337C154.216 10.0337 154.791 10.0787 155.293 10.1687C155.824 10.2587 156.267 10.4387 156.621 10.7087C156.975 10.9786 157.24 11.3536 157.417 11.8335C157.624 12.2835 157.727 12.8834 157.727 13.6333V27.3116C157.727 28.8114 157.108 29.9363 155.868 30.6862C154.836 31.3461 153.596 31.841 152.151 32.171C150.734 32.5309 149.185 32.7109 147.503 32.7109C145.91 32.7109 144.435 32.5309 143.078 32.171C141.75 31.811 140.599 31.2561 139.625 30.5062C138.652 29.7563 137.899 28.7964 137.368 27.6265C136.837 26.4267 136.572 24.9869 136.572 23.3071V10.4387Z"/>
        <path d="M180.478 25.4668C180.478 27.7465 179.637 29.5313 177.955 30.8211C176.273 32.111 173.794 32.7559 170.519 32.7559C169.28 32.7559 168.129 32.6659 167.067 32.4859C166.005 32.306 165.09 32.036 164.323 31.676C163.586 31.2861 162.995 30.8061 162.553 30.2362C162.14 29.6663 161.933 28.9914 161.933 28.2115C161.933 27.4916 162.081 26.8916 162.376 26.4117C162.671 25.9018 163.025 25.4818 163.438 25.1519C164.294 25.6318 165.267 26.0667 166.359 26.4567C167.48 26.8166 168.764 26.9966 170.21 26.9966C171.124 26.9966 171.818 26.8616 172.29 26.5917C172.791 26.3217 173.042 25.9618 173.042 25.5118C173.042 25.0919 172.865 24.7619 172.511 24.5219C172.157 24.282 171.567 24.087 170.741 23.937L169.413 23.667C166.846 23.1571 164.928 22.3622 163.659 21.2823C162.42 20.1725 161.8 18.5977 161.8 16.5579C161.8 15.4481 162.036 14.4432 162.509 13.5433C162.981 12.6434 163.645 11.8935 164.5 11.2936C165.356 10.6937 166.374 10.2287 167.554 9.89876C168.764 9.5688 170.092 9.40382 171.537 9.40382C172.629 9.40382 173.647 9.49381 174.591 9.67379C175.565 9.82377 176.406 10.0637 177.114 10.3937C177.822 10.7237 178.383 11.1586 178.796 11.6985C179.209 12.2085 179.415 12.8234 179.415 13.5433C179.415 14.2332 179.283 14.8331 179.017 15.3431C178.781 15.823 178.471 16.228 178.088 16.5579C177.852 16.4079 177.497 16.258 177.025 16.108C176.553 15.928 176.037 15.778 175.476 15.658C174.916 15.5081 174.34 15.3881 173.75 15.2981C173.19 15.2081 172.673 15.1631 172.201 15.1631C171.227 15.1631 170.475 15.2831 169.944 15.5231C169.413 15.733 169.147 16.078 169.147 16.5579C169.147 16.8879 169.295 17.1579 169.59 17.3678C169.885 17.5778 170.446 17.7728 171.272 17.9528L172.644 18.2677C175.476 18.9276 177.483 19.8425 178.663 21.0124C179.873 22.1522 180.478 23.637 180.478 25.4668Z"/>
        <path d="M195.706 32.7109C193.965 32.7109 192.342 32.4709 190.837 31.991C189.362 31.4811 188.064 30.7312 186.942 29.7413C185.851 28.7514 184.98 27.5066 184.331 26.0067C183.712 24.5069 183.402 22.7522 183.402 20.7424C183.402 18.7627 183.712 17.0679 184.331 15.658C184.98 14.2182 185.821 13.0484 186.854 12.1485C187.887 11.2186 189.067 10.5437 190.395 10.1237C191.722 9.67379 193.08 9.44882 194.466 9.44882C196.03 9.44882 197.447 9.68879 198.715 10.1687C200.014 10.6487 201.12 11.3086 202.035 12.1485C202.979 12.9884 203.702 13.9933 204.203 15.1631C204.734 16.333 205 17.6078 205 18.9876C205 20.0075 204.72 20.7874 204.159 21.3273C203.598 21.8673 202.817 22.2122 201.813 22.3622L190.881 24.027C191.206 25.0169 191.87 25.7668 192.873 26.2767C193.876 26.7567 195.027 26.9966 196.325 26.9966C197.535 26.9966 198.671 26.8466 199.733 26.5467C200.825 26.2167 201.71 25.8418 202.389 25.4218C202.861 25.7218 203.259 26.1417 203.584 26.6817C203.908 27.2216 204.071 27.7915 204.071 28.3915C204.071 29.7413 203.451 30.7462 202.212 31.4061C201.268 31.916 200.205 32.261 199.025 32.4409C197.845 32.6209 196.738 32.7109 195.706 32.7109ZM194.466 15.0281C193.758 15.0281 193.139 15.1481 192.608 15.3881C192.106 15.628 191.693 15.943 191.368 16.333C191.044 16.6929 190.793 17.1129 190.616 17.5928C190.468 18.0427 190.38 18.5077 190.35 18.9876L197.919 17.7278C197.83 17.1279 197.506 16.5279 196.945 15.928C196.384 15.3281 195.558 15.0281 194.466 15.0281Z" />
    </symbol>

    <symbol viewBox="0 0 91.833336 83.5" id="reviews">
        <path d="M83.5 29.3333H57.2083L61.1667 10.2916L61.2917 8.95829C61.2917 7.24996 60.5833 5.66663 59.4583 4.54163L55.0417 0.166626L27.625 27.625C26.0833 29.125 25.1667 31.2083 25.1667 33.5V75.1666C25.1667 79.75 28.9167 83.5 33.5 83.5H71C74.4583 83.5 77.4167 81.4166 78.6667 78.4166L91.25 49.0416C91.625 48.0833 91.8333 47.0833 91.8333 46V37.6666C91.8333 33.0833 88.0833 29.3333 83.5 29.3333ZM83.5 46L71 75.1666H33.5V33.5L51.5833 15.4166L46.9583 37.6666H83.5V46ZM0.166656 33.5H16.8333V83.5H0.166656V33.5Z" fill="#3077C6"/>
    </symbol>

    <symbol viewBox="0 0 75.5 91.833336" id="support">
        <path d="M67.1667 54.3333V71H58.8333V54.3333H67.1667ZM17.1667 54.3333V71H13C10.7083 71 8.83333 69.125 8.83333 66.8333V54.3333H17.1667ZM38 0.166626C17.2917 0.166626 0.5 16.9583 0.5 37.6666V66.8333C0.5 73.75 6.08333 79.3333 13 79.3333H25.5V46H8.83333V37.6666C8.83333 21.5416 21.875 8.49996 38 8.49996C54.125 8.49996 67.1667 21.5416 67.1667 37.6666V46H50.5V79.3333H67.1667V83.5H38V91.8333H63C69.9167 91.8333 75.5 86.25 75.5 79.3333V37.6666C75.5 16.9583 58.7083 0.166626 38 0.166626Z" fill="#3077C6"/>
    </symbol>

<symbol viewBox="0 0 205 40" id="logo-footer" fill="#FFFFFF">
        <path d="M0.840915 11.0236C0.634374 10.6937 0.442587 10.2437 0.265552 9.67379C0.0885173 9.10386 0 8.50394 0 7.87402C0 6.70416 0.250799 5.86427 0.752398 5.35433C1.2835 4.84439 1.96213 4.58943 2.7883 4.58943H22.0851C22.2916 4.91938 22.4834 5.36933 22.6604 5.93926C22.8375 6.50919 22.926 7.10911 22.926 7.73903C22.926 8.90889 22.6604 9.74878 22.1293 10.2587C21.6277 10.7687 20.9639 11.0236 20.1377 11.0236H15.225V31.811C14.9004 31.901 14.3841 31.991 13.6759 32.081C12.9973 32.171 12.3187 32.216 11.64 32.216C10.9614 32.216 10.3565 32.156 9.82543 32.036C9.32383 31.946 8.896 31.766 8.54193 31.4961C8.18786 31.2261 7.9223 30.8511 7.74527 30.3712C7.56823 29.8913 7.47972 29.2613 7.47972 28.4814V11.0236H0.840915Z"/>
        <path d="M31.8497 31.946C31.5546 32.036 31.0825 32.126 30.4334 32.216C29.8138 32.306 29.1646 32.351 28.486 32.351C27.8369 32.351 27.2467 32.306 26.7156 32.216C26.214 32.126 25.7862 31.946 25.4321 31.676C25.0781 31.4061 24.7978 31.0461 24.5912 30.5962C24.4142 30.1162 24.3257 29.5013 24.3257 28.7514V15.2531C24.3257 14.5632 24.4437 13.9783 24.6797 13.4983C24.9453 12.9884 25.3141 12.5384 25.7862 12.1485C26.2583 11.7585 26.8337 11.4136 27.5123 11.1136C28.2204 10.7837 28.9728 10.4987 29.7695 10.2587C30.5662 10.0187 31.3923 9.83877 32.248 9.71878C33.1036 9.5688 33.9593 9.49381 34.815 9.49381C36.2313 9.49381 37.3525 9.77878 38.1786 10.3487C39.0048 10.8886 39.4179 11.7885 39.4179 13.0484C39.4179 13.4683 39.3589 13.8883 39.2409 14.3082C39.1228 14.6982 38.9753 15.0581 38.7983 15.3881C38.1786 15.3881 37.5443 15.4181 36.8951 15.4781C36.246 15.5381 35.6116 15.628 34.992 15.748C34.3724 15.868 33.7823 16.003 33.2217 16.153C32.6906 16.273 32.2332 16.4229 31.8497 16.6029V31.946Z" />
        <path d="M42.3448 4.04949C42.3448 2.90964 42.7137 1.94976 43.4513 1.16985C44.2185 0.389951 45.2216 0 46.4609 0C47.7001 0 48.6886 0.389951 49.4262 1.16985C50.1934 1.94976 50.577 2.90964 50.577 4.04949C50.577 5.18935 50.1934 6.14923 49.4262 6.92913C48.6886 7.70904 47.7001 8.09899 46.4609 8.09899C45.2216 8.09899 44.2185 7.70904 43.4513 6.92913C42.7137 6.14923 42.3448 5.18935 42.3448 4.04949ZM50.2229 31.946C49.8983 32.006 49.4115 32.081 48.7623 32.171C48.1427 32.291 47.5084 32.351 46.8592 32.351C46.2101 32.351 45.62 32.306 45.0889 32.216C44.5873 32.126 44.1594 31.946 43.8054 31.676C43.4513 31.4061 43.171 31.0461 42.9645 30.5962C42.7874 30.1162 42.6989 29.5013 42.6989 28.7514V10.4387C43.0235 10.3787 43.4956 10.3037 44.1152 10.2137C44.7643 10.0937 45.4134 10.0337 46.0626 10.0337C46.7117 10.0337 47.2871 10.0787 47.7887 10.1687C48.3198 10.2587 48.7623 10.4387 49.1164 10.7087C49.4705 10.9786 49.736 11.3536 49.9131 11.8335C50.1196 12.2835 50.2229 12.8834 50.2229 13.6333V31.946Z" />
        <path d="M64.8825 9.44882C66.6529 9.44882 68.2905 9.68879 69.7952 10.1687C71.3296 10.6187 72.6426 11.3236 73.7343 12.2835C74.826 13.2433 75.6816 14.4582 76.3013 15.928C76.9209 17.3678 77.2307 19.0926 77.2307 21.1024C77.2307 23.0221 76.9652 24.7019 76.4341 26.1417C75.9029 27.5816 75.1506 28.7964 74.1769 29.7863C73.2032 30.7462 72.0229 31.4661 70.6362 31.946C69.2789 32.4259 67.7593 32.6659 66.0775 32.6659C64.8088 32.6659 63.6285 32.4709 62.5368 32.081V39.5501C62.2418 39.64 61.7697 39.73 61.1205 39.82C60.4714 39.94 59.8075 40 59.1289 40C58.4798 40 57.8897 39.955 57.3586 39.865C56.857 39.775 56.4291 39.5951 56.0751 39.3251C55.721 39.0551 55.4554 38.6802 55.2784 38.2002C55.1014 37.7503 55.0128 37.1504 55.0128 36.4004V14.8031C55.0128 13.9933 55.1751 13.3333 55.4997 12.8234C55.8538 12.3135 56.3259 11.8485 56.916 11.4286C57.8307 10.8286 58.9666 10.3487 60.3239 9.98875C61.6812 9.6288 63.2007 9.44882 64.8825 9.44882ZM64.9711 26.6367C68.0101 26.6367 69.5297 24.7919 69.5297 21.1024C69.5297 19.1826 69.1461 17.7578 68.379 16.8279C67.6413 15.898 66.5644 15.4331 65.1481 15.4331C64.5875 15.4331 64.0859 15.5081 63.6433 15.658C63.2007 15.778 62.8171 15.928 62.4926 16.108V26.0067C62.8466 26.1867 63.2302 26.3367 63.6433 26.4567C64.0564 26.5767 64.499 26.6367 64.9711 26.6367Z"/>
        <path d="M105.466 31.811C105.141 31.901 104.625 31.991 103.917 32.081C103.238 32.171 102.56 32.216 101.881 32.216C101.202 32.216 100.598 32.156 100.066 32.036C99.5649 31.946 99.137 31.766 98.783 31.4961C98.4289 31.2261 98.1633 30.8511 97.9863 30.3712C97.8093 29.8913 97.7207 29.2613 97.7207 28.4814V21.4623H89.2231V31.811C88.8985 31.901 88.3822 31.991 87.674 32.081C86.9954 32.171 86.3168 32.216 85.6381 32.216C84.9595 32.216 84.3546 32.156 83.8235 32.036C83.3219 31.946 82.8941 31.766 82.54 31.4961C82.1859 31.2261 81.9204 30.8511 81.7434 30.3712C81.5663 29.8913 81.4778 29.2613 81.4778 28.4814V4.72441C81.8024 4.66442 82.3187 4.58943 83.0269 4.49944C83.735 4.37945 84.4136 4.31946 85.0628 4.31946C85.7414 4.31946 86.3315 4.37945 86.8331 4.49944C87.3642 4.58943 87.8068 4.7694 88.1609 5.03937C88.5149 5.30934 88.7805 5.68429 88.9575 6.16423C89.1346 6.64417 89.2231 7.27409 89.2231 8.05399V15.2531H97.7207V4.72441C98.0453 4.66442 98.5617 4.58943 99.2698 4.49944C99.9779 4.37945 100.657 4.31946 101.306 4.31946C101.984 4.31946 102.574 4.37945 103.076 4.49944C103.607 4.58943 104.05 4.7694 104.404 5.03937C104.758 5.30934 105.023 5.68429 105.2 6.16423C105.377 6.64417 105.466 7.27409 105.466 8.05399V31.811Z"/>
        <path d="M132.901 21.0574C132.901 22.9171 132.621 24.5819 132.06 26.0517C131.499 27.4916 130.703 28.7064 129.67 29.6963C128.667 30.6862 127.457 31.4361 126.041 31.946C124.624 32.4559 123.046 32.7109 121.305 32.7109C119.564 32.7109 117.986 32.4409 116.569 31.901C115.153 31.3611 113.929 30.5962 112.896 29.6063C111.893 28.5864 111.111 27.3566 110.55 25.9168C109.99 24.4769 109.709 22.8571 109.709 21.0574C109.709 19.2876 109.99 17.6828 110.55 16.243C111.111 14.8031 111.893 13.5883 112.896 12.5984C113.929 11.5786 115.153 10.7986 116.569 10.2587C117.986 9.71878 119.564 9.44882 121.305 9.44882C123.046 9.44882 124.624 9.73378 126.041 10.3037C127.457 10.8436 128.667 11.6235 129.67 12.6434C130.703 13.6333 131.499 14.8481 132.06 16.288C132.621 17.7278 132.901 19.3176 132.901 21.0574ZM117.41 21.0574C117.41 22.8871 117.75 24.297 118.428 25.2868C119.136 26.2467 120.11 26.7267 121.349 26.7267C122.589 26.7267 123.533 26.2317 124.182 25.2418C124.861 24.252 125.2 22.8571 125.2 21.0574C125.2 19.2576 124.861 17.8778 124.182 16.9179C123.503 15.928 122.544 15.4331 121.305 15.4331C120.066 15.4331 119.107 15.928 118.428 16.9179C117.75 17.8778 117.41 19.2576 117.41 21.0574Z" />
        <path d="M136.572 10.4387C136.867 10.3487 137.324 10.2587 137.944 10.1687C138.593 10.0787 139.257 10.0337 139.935 10.0337C140.584 10.0337 141.16 10.0787 141.661 10.1687C142.192 10.2587 142.635 10.4387 142.989 10.7087C143.343 10.9786 143.609 11.3536 143.786 11.8335C143.992 12.2835 144.096 12.8834 144.096 13.6333V23.3071C144.096 24.5369 144.391 25.4218 144.981 25.9618C145.571 26.4717 146.426 26.7267 147.548 26.7267C148.226 26.7267 148.772 26.6667 149.185 26.5467C149.628 26.4267 149.967 26.3067 150.203 26.1867V10.4387C150.498 10.3487 150.956 10.2587 151.575 10.1687C152.224 10.0787 152.888 10.0337 153.567 10.0337C154.216 10.0337 154.791 10.0787 155.293 10.1687C155.824 10.2587 156.267 10.4387 156.621 10.7087C156.975 10.9786 157.24 11.3536 157.417 11.8335C157.624 12.2835 157.727 12.8834 157.727 13.6333V27.3116C157.727 28.8114 157.108 29.9363 155.868 30.6862C154.836 31.3461 153.596 31.841 152.151 32.171C150.734 32.5309 149.185 32.7109 147.503 32.7109C145.91 32.7109 144.435 32.5309 143.078 32.171C141.75 31.811 140.599 31.2561 139.625 30.5062C138.652 29.7563 137.899 28.7964 137.368 27.6265C136.837 26.4267 136.572 24.9869 136.572 23.3071V10.4387Z"/>
        <path d="M180.478 25.4668C180.478 27.7465 179.637 29.5313 177.955 30.8211C176.273 32.111 173.794 32.7559 170.519 32.7559C169.28 32.7559 168.129 32.6659 167.067 32.4859C166.005 32.306 165.09 32.036 164.323 31.676C163.586 31.2861 162.995 30.8061 162.553 30.2362C162.14 29.6663 161.933 28.9914 161.933 28.2115C161.933 27.4916 162.081 26.8916 162.376 26.4117C162.671 25.9018 163.025 25.4818 163.438 25.1519C164.294 25.6318 165.267 26.0667 166.359 26.4567C167.48 26.8166 168.764 26.9966 170.21 26.9966C171.124 26.9966 171.818 26.8616 172.29 26.5917C172.791 26.3217 173.042 25.9618 173.042 25.5118C173.042 25.0919 172.865 24.7619 172.511 24.5219C172.157 24.282 171.567 24.087 170.741 23.937L169.413 23.667C166.846 23.1571 164.928 22.3622 163.659 21.2823C162.42 20.1725 161.8 18.5977 161.8 16.5579C161.8 15.4481 162.036 14.4432 162.509 13.5433C162.981 12.6434 163.645 11.8935 164.5 11.2936C165.356 10.6937 166.374 10.2287 167.554 9.89876C168.764 9.5688 170.092 9.40382 171.537 9.40382C172.629 9.40382 173.647 9.49381 174.591 9.67379C175.565 9.82377 176.406 10.0637 177.114 10.3937C177.822 10.7237 178.383 11.1586 178.796 11.6985C179.209 12.2085 179.415 12.8234 179.415 13.5433C179.415 14.2332 179.283 14.8331 179.017 15.3431C178.781 15.823 178.471 16.228 178.088 16.5579C177.852 16.4079 177.497 16.258 177.025 16.108C176.553 15.928 176.037 15.778 175.476 15.658C174.916 15.5081 174.34 15.3881 173.75 15.2981C173.19 15.2081 172.673 15.1631 172.201 15.1631C171.227 15.1631 170.475 15.2831 169.944 15.5231C169.413 15.733 169.147 16.078 169.147 16.5579C169.147 16.8879 169.295 17.1579 169.59 17.3678C169.885 17.5778 170.446 17.7728 171.272 17.9528L172.644 18.2677C175.476 18.9276 177.483 19.8425 178.663 21.0124C179.873 22.1522 180.478 23.637 180.478 25.4668Z"/>
        <path d="M195.706 32.7109C193.965 32.7109 192.342 32.4709 190.837 31.991C189.362 31.4811 188.064 30.7312 186.942 29.7413C185.851 28.7514 184.98 27.5066 184.331 26.0067C183.712 24.5069 183.402 22.7522 183.402 20.7424C183.402 18.7627 183.712 17.0679 184.331 15.658C184.98 14.2182 185.821 13.0484 186.854 12.1485C187.887 11.2186 189.067 10.5437 190.395 10.1237C191.722 9.67379 193.08 9.44882 194.466 9.44882C196.03 9.44882 197.447 9.68879 198.715 10.1687C200.014 10.6487 201.12 11.3086 202.035 12.1485C202.979 12.9884 203.702 13.9933 204.203 15.1631C204.734 16.333 205 17.6078 205 18.9876C205 20.0075 204.72 20.7874 204.159 21.3273C203.598 21.8673 202.817 22.2122 201.813 22.3622L190.881 24.027C191.206 25.0169 191.87 25.7668 192.873 26.2767C193.876 26.7567 195.027 26.9966 196.325 26.9966C197.535 26.9966 198.671 26.8466 199.733 26.5467C200.825 26.2167 201.71 25.8418 202.389 25.4218C202.861 25.7218 203.259 26.1417 203.584 26.6817C203.908 27.2216 204.071 27.7915 204.071 28.3915C204.071 29.7413 203.451 30.7462 202.212 31.4061C201.268 31.916 200.205 32.261 199.025 32.4409C197.845 32.6209 196.738 32.7109 195.706 32.7109ZM194.466 15.0281C193.758 15.0281 193.139 15.1481 192.608 15.3881C192.106 15.628 191.693 15.943 191.368 16.333C191.044 16.6929 190.793 17.1129 190.616 17.5928C190.468 18.0427 190.38 18.5077 190.35 18.9876L197.919 17.7278C197.83 17.1279 197.506 16.5279 196.945 15.928C196.384 15.3281 195.558 15.0281 194.466 15.0281Z" />
    </symbol>

     <symbol viewBox="0 0 19 20" id="sign-up-plus">
        <path d="M9.73244 0.480652C4.61787 0.480652 0.464844 4.63368 0.464844 9.74825C0.464844 14.8628 4.61787 19.0158 9.73244 19.0158C14.847 19.0158 19 14.8628 19 9.74825C19 4.63368 14.8572 0.480652 9.73244 0.480652ZM15.1539 11.0985H11.0827V15.1697H8.38219V11.0985H4.311V8.398H8.38219V4.32681H11.0827V8.398H15.1539V11.0985Z" fill="#3077C6"/>
    </symbol>

     <symbol viewBox="0 0 33 45" id="sign-up-people">
        <path d="M28.6518 34.7484C28.6518 32.6923 29.1633 30.7181 30.1248 28.9587C28.7643 28.1915 27.7619 27.6903 27.3425 27.4857C27.2095 27.4243 27.1379 27.2913 27.1379 27.1481V19.0671C28.1506 18.392 28.8257 17.2361 28.8257 15.9268V7.5491C28.8257 3.38584 25.4501 0 21.2766 0H20.3764H19.4763C15.313 0 11.9272 3.37561 11.9272 7.5491V15.9268C11.9272 17.2361 12.6023 18.392 13.615 19.0671V27.1481C13.615 27.2913 13.5331 27.4243 13.4104 27.4857C12.2545 28.0483 6.65917 30.8715 1.473 35.1371C0.531915 35.9043 0 37.0602 0 38.2774V44.016H20.3662H32.9787C32.7025 43.7909 32.4468 43.5454 32.1911 43.2897C29.91 41.0086 28.6518 37.9705 28.6518 34.7484Z" fill="#3077C6"/>
    </symbol>

    <symbol viewBox="0 0 21 9" id="polugon" fill="none">
        <path d="M1.17647 1.00001L9.38823 7.15884C10.0993 7.69217 11.0771 7.69217 11.7882 7.15884L20 1.00001" stroke="#383838" stroke-width="2"/>
    </symbol>

    <symbol viewBox="0 0 54 54" id="reviews-answer">
        <path d="M27 0.333374C12.28 0.333374 0.333313 12.28 0.333313 27C0.333313 41.72 12.28 53.6667 27 53.6667C41.72 53.6667 53.6666 41.72 53.6666 27C53.6666 12.28 41.72 0.333374 27 0.333374ZM27 8.33337C31.4266 8.33337 35 11.9067 35 16.3334C35 20.76 31.4266 24.3334 27 24.3334C22.5733 24.3334 19 20.76 19 16.3334C19 11.9067 22.5733 8.33337 27 8.33337ZM27 46.2C20.3333 46.2 14.44 42.7867 11 37.6134C11.08 32.3067 21.6666 29.4 27 29.4C32.3066 29.4 42.92 32.3067 43 37.6134C39.56 42.7867 33.6666 46.2 27 46.2Z" fill="#BFBFBF"/>
    </symbol>

    <symbol id="night-theme" viewBox="0 0 30 30">
        <path d="M25.6101 10.6101V4.38992h-6.2202L15 0l-4.3899 4.38992H4.38992v6.22018L0 15l4.38992 4.3899v6.2202h6.22018L15 30l4.3899-4.3899h6.2202v-6.2202L30 15l-4.3899-4.3899zM15 22.9576c-1.1804 0-2.3077-.2653-3.3156-.7295 2.732-1.2599 4.6419-4.0185 4.6419-7.2281 0-3.2095-1.9099-5.96817-4.6419-7.22812 1.0079-.46419 2.1352-.72944 3.3156-.72944 4.3899 0 7.9576 3.56766 7.9576 7.95756S19.3899 22.9576 15 22.9576z"
              fill="#fff"/>
    </symbol>
    <symbol id="account-circle" viewBox="0 0 40 40">
        <path d="M20 0C8.96 0 0 8.96 0 20s8.96 20 20 20 20-8.96 20-20S31.04 0 20 0zm0 6c3.32 0 6 2.68 6 6s-2.68 6-6 6-6-2.68-6-6 2.68-6 6-6zm0 28.4c-5 0-9.42-2.56-12-6.44.06-3.98 8-6.16 12-6.16 3.98 0 11.94 2.18 12 6.16-2.58 3.88-7 6.44-12 6.44z"
              fill="#fff"/>
    </symbol>

    <symbol id="menu" viewBox="0 0 24 16">
        <path d="M0 16h24v-2.6667H0V16zm0-6.66667h24V6.66667H0v2.66666zM0 0v2.66667h24V0H0z"
              fill="#fff"/>
    </symbol>

    <symbol id="sign-logo-adaptive" viewBox="0 0 54 12">
        <path d="M0.585805 3.60941C0.53214 3.52153 0.482307 3.4017 0.436308 3.24991C0.390309 3.09812 0.36731 2.93835 0.36731 2.77058C0.36731 2.45902 0.432475 2.23533 0.562806 2.09952C0.700803 1.96371 0.877133 1.89581 1.09179 1.89581H6.10569C6.15936 1.98369 6.20919 2.10352 6.25519 2.2553C6.30119 2.40709 6.32419 2.56687 6.32419 2.73463C6.32419 3.0462 6.25519 3.26988 6.11719 3.40569C5.98686 3.5415 5.81437 3.60941 5.5997 3.60941H4.32323V9.14564C4.2389 9.16961 4.10473 9.19357 3.92074 9.21754C3.74441 9.24151 3.56808 9.25349 3.39175 9.25349C3.21542 9.25349 3.05825 9.23751 2.92026 9.20556C2.78993 9.18159 2.67876 9.13366 2.58676 9.06176C2.49477 8.98986 2.42577 8.89 2.37977 8.76218C2.33377 8.63436 2.31077 8.46659 2.31077 8.25889V3.60941H0.585805Z" fill="white"/>
        <path d="M8.64283 9.18159C8.56616 9.20556 8.4435 9.22952 8.27484 9.25349C8.11384 9.27746 7.94518 9.28944 7.76885 9.28944C7.60018 9.28944 7.44685 9.27746 7.30886 9.25349C7.17853 9.22952 7.06736 9.18159 6.97536 9.10969C6.88336 9.03779 6.81053 8.94193 6.75687 8.8221C6.71087 8.69428 6.68787 8.53051 6.68787 8.33079V4.73583C6.68787 4.55208 6.71853 4.3963 6.77987 4.26848C6.84887 4.13267 6.9447 4.01284 7.06736 3.90899C7.19002 3.80513 7.33952 3.71326 7.51585 3.63337C7.69985 3.5455 7.89534 3.4696 8.10234 3.40569C8.30934 3.34178 8.524 3.29385 8.74633 3.26189C8.96866 3.22195 9.19098 3.20198 9.41331 3.20198C9.78131 3.20198 10.0726 3.27787 10.2873 3.42966C10.502 3.57346 10.6093 3.81312 10.6093 4.14865C10.6093 4.26049 10.594 4.37234 10.5633 4.48418C10.5326 4.58803 10.4943 4.6839 10.4483 4.77178C10.2873 4.77178 10.1225 4.77976 9.9538 4.79574C9.78514 4.81172 9.62031 4.83569 9.45931 4.86764C9.29832 4.8996 9.14499 4.93555 8.99932 4.97549C8.86132 5.00745 8.74249 5.04739 8.64283 5.09532V9.18159Z" fill="white"/>
        <path d="M11.3698 1.75201C11.3698 1.44844 11.4656 1.19279 11.6573 0.985086C11.8566 0.777377 12.1173 0.673523 12.4393 0.673523C12.7613 0.673523 13.0181 0.777377 13.2098 0.985086C13.4091 1.19279 13.5088 1.44844 13.5088 1.75201C13.5088 2.05558 13.4091 2.31123 13.2098 2.51893C13.0181 2.72664 12.7613 2.8305 12.4393 2.8305C12.1173 2.8305 11.8566 2.72664 11.6573 2.51893C11.4656 2.31123 11.3698 2.05558 11.3698 1.75201ZM13.4168 9.18159C13.3324 9.19757 13.2059 9.21754 13.0373 9.24151C12.8763 9.27346 12.7114 9.28944 12.5428 9.28944C12.3741 9.28944 12.2208 9.27746 12.0828 9.25349C11.9525 9.22952 11.8413 9.18159 11.7493 9.10969C11.6573 9.03779 11.5845 8.94193 11.5308 8.8221C11.4848 8.69428 11.4618 8.53051 11.4618 8.33079V3.45362C11.5461 3.43765 11.6688 3.41767 11.8298 3.39371C11.9985 3.36175 12.1671 3.34578 12.3358 3.34578C12.5044 3.34578 12.6539 3.35776 12.7843 3.38173C12.9223 3.40569 13.0373 3.45362 13.1293 3.52552C13.2213 3.59742 13.2903 3.69728 13.3363 3.8251C13.3899 3.94494 13.4168 4.10471 13.4168 4.30443V9.18159Z" fill="white"/>
        <path d="M17.2258 3.18999C17.6858 3.18999 18.1113 3.2539 18.5023 3.38173C18.9009 3.50156 19.2421 3.68929 19.5257 3.94494C19.8094 4.20058 20.0317 4.52412 20.1927 4.91557C20.3537 5.29904 20.4342 5.75839 20.4342 6.29364C20.4342 6.80492 20.3652 7.2523 20.2272 7.63576C20.0892 8.01922 19.8937 8.34277 19.6407 8.6064C19.3877 8.86204 19.0811 9.05377 18.7208 9.18159C18.3681 9.30941 17.9733 9.37332 17.5363 9.37332C17.2066 9.37332 16.9 9.3214 16.6163 9.21754V11.2068C16.5396 11.2307 16.417 11.2547 16.2483 11.2787C16.0796 11.3106 15.9071 11.3266 15.7308 11.3266C15.5622 11.3266 15.4088 11.3146 15.2708 11.2906C15.1405 11.2667 15.0293 11.2187 14.9373 11.1468C14.8453 11.0749 14.7763 10.9751 14.7303 10.8473C14.6843 10.7274 14.6613 10.5676 14.6613 10.3679V4.61599C14.6613 4.4003 14.7035 4.22454 14.7878 4.08873C14.8798 3.95292 15.0025 3.8291 15.1558 3.71725C15.3935 3.55748 15.6887 3.42966 16.0413 3.33379C16.394 3.23793 16.7888 3.18999 17.2258 3.18999ZM17.2488 7.76757C18.0384 7.76757 18.4333 7.27626 18.4333 6.29364C18.4333 5.78236 18.3336 5.40289 18.1343 5.15524C17.9426 4.90759 17.6628 4.78376 17.2948 4.78376C17.1491 4.78376 17.0188 4.80373 16.9038 4.84368C16.7888 4.87563 16.6891 4.91557 16.6048 4.96351V7.59981C16.6968 7.64774 16.7965 7.68769 16.9038 7.71964C17.0111 7.7516 17.1261 7.76757 17.2488 7.76757Z" fill="white"/>
        <path d="M27.7706 9.14564C27.6863 9.16961 27.5521 9.19357 27.3681 9.21754C27.1918 9.24151 27.0155 9.25349 26.8391 9.25349C26.6628 9.25349 26.5056 9.23751 26.3677 9.20556C26.2373 9.18159 26.1262 9.13366 26.0342 9.06176C25.9422 8.98986 25.8732 8.89 25.8272 8.76218C25.7812 8.63436 25.7582 8.46659 25.7582 8.25889V6.38951H23.5502V9.14564C23.4659 9.16961 23.3317 9.19357 23.1477 9.21754C22.9714 9.24151 22.7951 9.25349 22.6187 9.25349C22.4424 9.25349 22.2852 9.23751 22.1472 9.20556C22.0169 9.18159 21.9057 9.13366 21.8137 9.06176C21.7217 8.98986 21.6527 8.89 21.6067 8.76218C21.5608 8.63436 21.5378 8.46659 21.5378 8.25889V1.93176C21.6221 1.91578 21.7562 1.89581 21.9402 1.87184C22.1242 1.83989 22.3006 1.82391 22.4692 1.82391C22.6456 1.82391 22.7989 1.83989 22.9292 1.87184C23.0672 1.89581 23.1822 1.94374 23.2742 2.01564C23.3662 2.08754 23.4352 2.1874 23.4812 2.31522C23.5272 2.44304 23.5502 2.61081 23.5502 2.81852V4.73583H25.7582V1.93176C25.8425 1.91578 25.9767 1.89581 26.1607 1.87184C26.3447 1.83989 26.521 1.82391 26.6896 1.82391C26.866 1.82391 27.0193 1.83989 27.1496 1.87184C27.2876 1.89581 27.4026 1.94374 27.4946 2.01564C27.5866 2.08754 27.6556 2.1874 27.7016 2.31522C27.7476 2.44304 27.7706 2.61081 27.7706 2.81852V9.14564Z" fill="white"/>
        <path d="M34.899 6.28166C34.899 6.77696 34.8262 7.22034 34.6805 7.61179C34.5349 7.99526 34.3279 8.3188 34.0596 8.58243C33.7989 8.84606 33.4846 9.04578 33.1166 9.18159C32.7486 9.3174 32.3384 9.38531 31.8861 9.38531C31.4338 9.38531 31.0236 9.31341 30.6556 9.16961C30.2876 9.02581 29.9695 8.8221 29.7011 8.55847C29.4405 8.28685 29.2373 7.95931 29.0917 7.57584C28.946 7.19238 28.8732 6.76099 28.8732 6.28166C28.8732 5.81032 28.946 5.38292 29.0917 4.99946C29.2373 4.61599 29.4405 4.29245 29.7011 4.02882C29.9695 3.7572 30.2876 3.54949 30.6556 3.40569C31.0236 3.26189 31.4338 3.18999 31.8861 3.18999C32.3384 3.18999 32.7486 3.26589 33.1166 3.41767C33.4846 3.56147 33.7989 3.76918 34.0596 4.0408C34.3279 4.30443 34.5349 4.62798 34.6805 5.01144C34.8262 5.3949 34.899 5.81831 34.899 6.28166ZM30.8741 6.28166C30.8741 6.76898 30.9623 7.14445 31.1386 7.40808C31.3226 7.66372 31.5756 7.79154 31.8976 7.79154C32.2196 7.79154 32.4649 7.65973 32.6336 7.3961C32.8099 7.13247 32.8981 6.76099 32.8981 6.28166C32.8981 5.80233 32.8099 5.43485 32.6336 5.1792C32.4573 4.91557 32.2081 4.78376 31.8861 4.78376C31.5641 4.78376 31.3149 4.91557 31.1386 5.1792C30.9623 5.43485 30.8741 5.80233 30.8741 6.28166Z" fill="white"/>
        <path d="M35.8528 3.45362C35.9295 3.42966 36.0483 3.40569 36.2093 3.38173C36.378 3.35776 36.5505 3.34578 36.7268 3.34578C36.8954 3.34578 37.0449 3.35776 37.1753 3.38173C37.3133 3.40569 37.4283 3.45362 37.5203 3.52552C37.6123 3.59742 37.6813 3.69728 37.7273 3.8251C37.7809 3.94494 37.8078 4.10471 37.8078 4.30443V6.88082C37.8078 7.20836 37.8844 7.44403 38.0378 7.58783C38.1911 7.72364 38.4134 7.79154 38.7047 7.79154C38.8811 7.79154 39.0229 7.77556 39.1302 7.74361C39.2452 7.71165 39.3334 7.6797 39.3947 7.64774V3.45362C39.4714 3.42966 39.5902 3.40569 39.7512 3.38173C39.9199 3.35776 40.0924 3.34578 40.2687 3.34578C40.4374 3.34578 40.5869 3.35776 40.7172 3.38173C40.8552 3.40569 40.9702 3.45362 41.0622 3.52552C41.1542 3.59742 41.2232 3.69728 41.2692 3.8251C41.3229 3.94494 41.3497 4.10471 41.3497 4.30443V7.94732C41.3497 8.34676 41.1887 8.64634 40.8667 8.84606C40.5984 9.02182 40.2764 9.15363 39.9007 9.24151C39.5327 9.33737 39.1302 9.38531 38.6932 9.38531C38.2793 9.38531 37.8959 9.33737 37.5433 9.24151C37.1983 9.14564 36.8993 8.99785 36.6463 8.79813C36.3933 8.59841 36.1978 8.34277 36.0598 8.03121C35.9218 7.71165 35.8528 7.32819 35.8528 6.88082V3.45362Z" fill="white"/>
        <path d="M47.2609 7.45601C47.2609 8.06316 47.0424 8.53849 46.6054 8.88201C46.1684 9.22553 45.5245 9.39729 44.6735 9.39729C44.3515 9.39729 44.0525 9.37332 43.7765 9.32539C43.5005 9.27746 43.2628 9.20556 43.0635 9.10969C42.8719 9.00584 42.7185 8.87802 42.6035 8.72623C42.4962 8.57444 42.4425 8.3947 42.4425 8.18699C42.4425 7.99526 42.4809 7.83548 42.5575 7.70766C42.6342 7.57185 42.7262 7.46001 42.8335 7.37213C43.0558 7.49995 43.3088 7.61579 43.5925 7.71964C43.8838 7.81551 44.2173 7.86344 44.593 7.86344C44.8306 7.86344 45.0108 7.82749 45.1335 7.75559C45.2638 7.68369 45.329 7.58783 45.329 7.46799C45.329 7.35615 45.283 7.26828 45.191 7.20436C45.099 7.14045 44.9456 7.08853 44.731 7.04858L44.386 6.97668C43.719 6.84087 43.2207 6.62917 42.891 6.34157C42.569 6.04599 42.408 5.62658 42.408 5.08334C42.408 4.78775 42.4694 4.52013 42.592 4.28046C42.7147 4.0408 42.8872 3.84108 43.1095 3.68131C43.3318 3.52153 43.5963 3.3977 43.903 3.30983C44.2173 3.22195 44.5623 3.17801 44.938 3.17801C45.2216 3.17801 45.4861 3.20198 45.7315 3.24991C45.9845 3.28985 46.203 3.35376 46.3869 3.44164C46.5709 3.52952 46.7166 3.64536 46.8239 3.78915C46.9313 3.92496 46.9849 4.08873 46.9849 4.28046C46.9849 4.46421 46.9504 4.62398 46.8814 4.75979C46.8201 4.88761 46.7396 4.99546 46.6399 5.08334C46.5786 5.0434 46.4866 5.00345 46.3639 4.96351C46.2413 4.91557 46.1071 4.87563 45.9615 4.84368C45.8158 4.80373 45.6663 4.77178 45.513 4.74781C45.3673 4.72384 45.2331 4.71186 45.1105 4.71186C44.8575 4.71186 44.662 4.74382 44.524 4.80773C44.386 4.86365 44.317 4.95552 44.317 5.08334C44.317 5.17122 44.3553 5.24311 44.432 5.29904C44.5087 5.35496 44.6543 5.40689 44.869 5.45482L45.2255 5.5387C45.9615 5.71445 46.4828 5.95811 46.7894 6.26968C47.1038 6.57325 47.2609 6.9687 47.2609 7.45601Z" fill="white"/>
        <path d="M51.2177 9.38531C50.7653 9.38531 50.3437 9.3214 49.9527 9.19357C49.5694 9.05777 49.232 8.85805 48.9407 8.59442C48.657 8.33078 48.4309 7.99925 48.2622 7.59981C48.1012 7.20037 48.0207 6.73303 48.0207 6.19778C48.0207 5.67052 48.1012 5.21915 48.2622 4.84368C48.4309 4.46021 48.6494 4.14865 48.9177 3.90899C49.186 3.66133 49.4927 3.48159 49.8377 3.36974C50.1827 3.24991 50.5353 3.18999 50.8957 3.18999C51.302 3.18999 51.67 3.2539 51.9996 3.38173C52.337 3.50955 52.6245 3.6853 52.8621 3.90899C53.1075 4.13267 53.2953 4.4003 53.4256 4.71186C53.5636 5.02342 53.6326 5.36295 53.6326 5.73043C53.6326 6.00205 53.5598 6.20976 53.4141 6.35356C53.2684 6.49736 53.0653 6.58923 52.8046 6.62917L49.9642 7.07255C50.0485 7.33618 50.221 7.5359 50.4817 7.67171C50.7423 7.79953 51.0413 7.86344 51.3787 7.86344C51.693 7.86344 51.9881 7.8235 52.2641 7.74361C52.5478 7.65573 52.7778 7.55587 52.9541 7.44403C53.0768 7.52392 53.1803 7.63576 53.2646 7.77956C53.3489 7.92336 53.3911 8.07514 53.3911 8.23492C53.3911 8.59442 53.2301 8.86204 52.9081 9.03779C52.6628 9.1736 52.3868 9.26547 52.0801 9.31341C51.7735 9.36134 51.486 9.38531 51.2177 9.38531ZM50.8957 4.67591C50.7117 4.67591 50.5507 4.70787 50.4127 4.77178C50.2823 4.83569 50.175 4.91957 50.0907 5.02342C50.0064 5.11929 49.9412 5.23113 49.8952 5.35895C49.8568 5.47878 49.8339 5.60261 49.8262 5.73043L51.7926 5.3949C51.7696 5.23513 51.6853 5.07535 51.5396 4.91557C51.394 4.7558 51.1793 4.67591 50.8957 4.67591Z" fill="white"/>            
    </symbol>

    <symbol id="sign-back-logo" viewBox="0 0 58 58">
        <rect width="58" height="58" rx="4" fill="#3077C6"/>        
    </symbol>

    <symbol id="close-sign" viewBox="0 0 16 16">
        <path d="M16 0.914279L15.0858 0L8 7.08572L0.914279 0L0 0.914279L7.08572 8L0 15.0858L0.914279 16L8 8.91428L15.0858 16L16 15.0858L8.91428 8L16 0.914279Z" fill="#BFBFBF"/>
    </symbol>

</svg>